<svg width="420" height="148" viewBox="0 0 420 148" fill="none" xmlns="http://www.w3.org/2000/svg">
<path d="M43.3388 137.743H2.71433V77.1234H41.2578C54.377 77.1234 60.8914 82.2807 60.8914 91.7808C60.8914 99.5619 56.8199 105.081 45.7817 105.533V106.438C57.9057 106.891 63.6962 112.5 63.6962 120.915C63.6962 131.139 57.8152 137.743 43.3388 137.743ZM19.6336 92.4141V100.105H39.4482C42.8864 100.105 43.8816 99.1095 43.8816 96.3047C43.8816 93.4999 42.5245 92.4141 38.9958 92.4141H19.6336ZM19.6336 114.038V122.453H41.1673C45.2388 122.453 46.5055 121.638 46.5055 118.2C46.5055 114.853 45.3293 114.038 41.1673 114.038H19.6336ZM84.3131 137.743H67.3033V77.1234H102.68C118.695 77.1234 127.109 83.8188 127.109 95.6713C127.109 105.262 122.314 110.962 110.733 112.41V113.314C116.975 114.943 118.966 117.929 121.228 122.543L128.738 137.743H109.104L101.866 122.905C99.6943 118.381 97.8847 117.115 91.2799 117.115H84.3131V137.743ZM84.3131 92.4141V104.448H102.499C107.475 104.448 109.285 103.543 109.285 98.3857C109.285 93.5903 107.475 92.4141 102.499 92.4141H84.3131ZM185.285 137.743H131.45V77.1234H185.285V92.4141H148.46V99.6523H183.927V114.853H148.46V122.453H185.285V137.743ZM207.129 137.743H190.12V77.1234H213.191L224.32 102.276L230.292 117.929H231.468L237.168 102.276L247.754 77.1234H270.826V137.743H253.816V112.681L254.449 102.548H253.273L249.835 112.681L240.787 134.124H220.158L211.11 112.681L207.672 102.548H206.496L207.129 112.681V137.743ZM330.102 137.743H276.268V77.1234H330.102V92.4141H293.277V99.6523H328.745V114.853H293.277V122.453H330.102V137.743ZM351.946 137.743H334.937V77.1234H353.032L369.861 99.8333L378.728 113.767H379.904L379.09 100.557V77.1234H396.1V137.743H378.004L360.089 114.4L352.399 102.457H351.223L351.946 114.038V137.743Z" fill="#0C1844"/>
<path d="M28.229 68.9048C10.4954 68.9048 2.89528 59.9475 2.89528 49.1807V48.6378H6.96677V49.7235C6.96677 59.4951 13.3907 65.0142 28.229 65.0142C40.8054 65.0142 47.3198 61.1237 47.3198 53.1617C47.3198 45.4711 42.6149 42.6663 32.8434 40.4948L21.3527 38.1424C11.8526 36.1519 3.52863 32.4423 3.52863 22.3088C3.52863 14.3468 10.4049 6.47525 26.7814 6.47525C43.3388 6.47525 50.577 15.6135 50.577 26.1994V26.7422H46.5055V25.6565C46.5055 15.8849 40.2625 10.4563 26.6909 10.4563C13.8431 10.4563 7.60012 14.3468 7.60012 21.8564C7.60012 29.8185 12.2145 32.2614 22.4384 34.5233L33.8386 36.8757C43.7911 38.9567 51.3913 42.9377 51.3913 52.7093C51.3913 61.0332 44.1531 68.9048 28.229 68.9048ZM64.6476 68H60.5762V7.38002H66.1858L88.6242 50.2664L93.7814 60.4904H94.1433L99.3006 50.2664L121.829 7.38002H127.349V68H123.277V21.3136L123.368 13.5325H123.006L119.115 21.3136L96.4053 64.3809H91.5195L68.8096 21.3136L64.9191 13.5325H64.5572L64.6476 21.3136V68ZM138.397 68H134.055L161.741 7.38002H167.26L194.946 68H190.603L181.646 48.7283H147.264L138.397 68ZM161.107 18.7802L148.983 45.0187H179.927L167.803 18.7802L164.546 11.361H164.184L161.107 18.7802ZM205.842 68H201.771V7.38002H230.181C242.124 7.38002 250.719 13.7135 250.719 24.6612C250.719 35.0662 242.667 41.5805 231.447 41.5805V41.9425C234.885 42.9377 237.238 45.3806 239.319 48.6378L251.533 68H247.009L235.338 49.814C232.171 44.6568 228.642 42.3044 220.228 42.3044H205.842V68ZM205.842 11.0896V38.7757H230.181C240.766 38.7757 246.557 34.3423 246.557 24.9327C246.557 15.523 240.766 11.0896 230.181 11.0896H205.842ZM284.61 68H280.629V11.0896H254.843V7.38002H310.306V11.0896H284.61V68Z" fill="#0C1844"/>
<rect width="18.9937" height="62.9959" transform="matrix(1 0 -0.250059 0.968231 320.612 8.81104)" fill="#4F7279"/>
<rect width="18.0892" height="62.9959" transform="matrix(1 0 -0.250059 0.968231 347.745 8.81104)" fill="#A66337"/>
<rect width="18.9937" height="62.9959" transform="matrix(1 0 -0.250059 0.968231 373.975 8.81104)" fill="#8F3028"/>
</svg>
