<svg width="176" height="63" viewBox="0 0 176 63" fill="none" xmlns="http://www.w3.org/2000/svg">
<path d="M18.1869 58.2674H1.13906V32.8285H17.3137C22.8191 32.8285 25.5528 34.9927 25.5528 38.9794C25.5528 42.2447 23.8442 44.5608 19.2121 44.7506V45.1303C24.2999 45.3202 26.7299 47.6742 26.7299 51.2053C26.7299 55.4957 24.2619 58.2674 18.1869 58.2674ZM8.23917 39.2452V42.4725H16.5543C17.9971 42.4725 18.4147 42.0549 18.4147 40.8778C18.4147 39.7008 17.8452 39.2452 16.3644 39.2452H8.23917ZM8.23917 48.3197V51.8507H17.2757C18.9843 51.8507 19.5158 51.509 19.5158 50.0662C19.5158 48.6614 19.0222 48.3197 17.2757 48.3197H8.23917ZM35.3816 58.2674H28.2436V32.8285H43.0893C49.8097 32.8285 53.3408 35.6382 53.3408 40.6121C53.3408 44.6367 51.3284 47.0287 46.4685 47.6362V48.0159C49.0883 48.6994 49.9236 49.9523 50.8728 51.8887L54.0242 58.2674H45.785L42.7475 52.0406C41.8363 50.1422 41.0769 49.6106 38.3052 49.6106H35.3816V58.2674ZM35.3816 39.2452V44.295H43.0133C45.1016 44.295 45.861 43.9153 45.861 41.7511C45.861 39.7388 45.1016 39.2452 43.0133 39.2452H35.3816ZM77.7539 58.2674H55.1627V32.8285H77.7539V39.2452H62.3007V42.2827H77.1844V48.6614H62.3007V51.8507H77.7539V58.2674ZM86.921 58.2674H79.7829V32.8285H89.4649L94.135 43.3838L96.6409 49.9523H97.1345L99.5265 43.3838L103.969 32.8285H113.651V58.2674H106.513V47.7501L106.779 43.4977H106.285L104.842 47.7501L101.045 56.7487H92.3884L88.5916 47.7501L87.1488 43.4977H86.6552L86.921 47.7501V58.2674ZM138.526 58.2674H115.935V32.8285H138.526V39.2452H123.073V42.2827H137.956V48.6614H123.073V51.8507H138.526V58.2674ZM147.693 58.2674H140.555V32.8285H148.149L155.211 42.3586L158.932 48.2058H159.425L159.083 42.6624V32.8285H166.222V58.2674H158.628L151.11 48.4715L147.883 43.4597H147.389L147.693 48.3197V58.2674Z" fill="white"/>
<path d="M11.8462 29.3797C4.40435 29.3797 1.21499 25.6208 1.21499 21.1025V20.8747H2.92358V21.3304C2.92358 25.431 5.61934 27.747 11.8462 27.747C17.1238 27.747 19.8575 26.1144 19.8575 22.7732C19.8575 19.5458 17.8832 18.3688 13.7826 17.4576L8.96058 16.4704C4.97388 15.6351 1.48077 14.0784 1.48077 9.82589C1.48077 6.48465 4.36638 3.18139 11.2387 3.18139C18.1869 3.18139 21.2244 7.01621 21.2244 11.4585V11.6863H19.5158V11.2307C19.5158 7.13012 16.896 4.852 11.2007 4.852C5.80919 4.852 3.18936 6.48465 3.18936 9.63604C3.18936 12.9773 5.12575 14.0024 9.4162 14.9516L14.2002 15.9388C18.3768 16.8121 21.5661 18.4827 21.5661 22.5833C21.5661 26.0764 18.5287 29.3797 11.8462 29.3797ZM27.1291 29H25.4205V3.56107H27.7746L37.1908 21.5582L39.355 25.8486H39.5069L41.6711 21.5582L51.1252 3.56107H53.4413V29H51.7327V9.40823L51.7707 6.14293H51.6188L49.9862 9.40823L40.4561 27.4813H38.4058L28.8757 9.40823L27.243 6.14293H27.0912L27.1291 9.40823V29ZM58.0779 29H56.2554L67.8738 3.56107H70.1899L81.8083 29H79.9858L76.2269 20.9127H61.7988L58.0779 29ZM67.608 8.34511L62.5202 19.356H75.5055L70.4177 8.34511L69.0508 5.23169H68.899L67.608 8.34511ZM86.3808 29H84.6722V3.56107H96.5944C101.606 3.56107 105.213 6.21887 105.213 10.8131C105.213 15.1794 101.834 17.9132 97.1259 17.9132V18.0651C98.5687 18.4827 99.5559 19.5079 100.429 20.8747L105.555 29H103.657L98.7586 21.3683C97.4297 19.2041 95.9489 18.2169 92.4178 18.2169H86.3808V29ZM86.3808 5.11779V16.7362H96.5944C101.037 16.7362 103.467 14.8757 103.467 10.927C103.467 6.97824 101.037 5.11779 96.5944 5.11779H86.3808ZM119.435 29H117.765V5.11779H106.944V3.56107H130.218V5.11779H119.435V29Z" fill="white"/>
<rect width="8.09639" height="26.8531" transform="matrix(1 0 -0.250059 0.968231 134.715 3)" fill="#4F7279"/>
<rect width="7.71084" height="26.8531" transform="matrix(1 0 -0.250059 0.968231 146.281 3)" fill="#A66337"/>
<rect width="8.09639" height="26.8531" transform="matrix(1 0 -0.250059 0.968231 157.462 3)" fill="#8F3028"/>
</svg>
